<svg xmlns="http://www.w3.org/2000/svg" viewBox="0 0 56.69 56.69"><defs><style>.cls-1{fill:#0188fc;}.cls-1,.cls-2,.cls-3{fill-rule:evenodd;}.cls-2{fill:#21f0fd;}.cls-3{fill:#f4fbfa;}</style></defs><g id="Layer_2" data-name="Layer 2"><g id="Layer_1-2" data-name="Layer 1"><rect width="56.69" height="56.69" rx="10.63"/><path class="cls-1" d="M9.31,22.19c.65.43,3.76.33,4.83.33H28.3c.38,0,.91.09,1.17-.15-.16-.05-.09,0-.12-.17V17.91c0-.58.08-.7-.15-.74H20.28c-1.06,0-13.59-.06-14.28,0-.24,1.9,1.71,4.56,3.41,5Z"/><path class="cls-1" d="M29.46,25.2c-.35-.13-9.59,0-10.84,0H13.18c-1.76,0-3.7-.08-5.44,0A8,8,0,0,0,8,26.66a5.26,5.26,0,0,0,2.1,2.93c1.63,1.2,3.48,1,5.78,1,1.41,0,13.19.09,13.45,0s.05-4,.05-4.74-.08-.57.11-.57"/><path class="cls-2" d="M31.32,30.7l0-.14H50.51V29.42a9.56,9.56,0,0,0-.9-3.29,7.49,7.49,0,0,1-.47-.94H50c-.36-.08-15,0-16.54,0a17.62,17.62,0,0,0-2.31.05v5.33c.27.22.18.11.2.14"/><path class="cls-1" d="M15.37,33.49a5.15,5.15,0,0,0,1.42,3.38,5.42,5.42,0,0,0,3.09,1.64c1.44.15,3.23.06,4.74.06.75,0,4.27,0,4.71,0,.07-.62,0-2.94,0-3.86V34c0-.54-.05-.51.11-.52-.15-.1-.08-.05-.21-.3H15.38Z"/><path class="cls-2" d="M43.51,20.4a27.51,27.51,0,0,0-3.64-1.51,38.1,38.1,0,0,0-6.27-1.44,17.08,17.08,0,0,1-2.29-.32s0-.07-.18.13v5.29l15.59-.07c-.17-.56-2.61-1.78-3.2-2.08"/><path class="cls-2" d="M31.92,38.23a4.18,4.18,0,0,0,2.37,1.14A3.46,3.46,0,0,0,38,36.05a3.34,3.34,0,0,0-.27-1.48c-.26-.66-.58-.84-.66-1.08a4.22,4.22,0,0,0-1-.68,3.45,3.45,0,0,0-4.91,2.84,4,4,0,0,0,.8,2.58"/><path class="cls-2" d="M41.15,39.07s0,0,.09,0h0l.17.07a3.39,3.39,0,0,0,1,.24,3.19,3.19,0,0,0,1.44-.2A3.48,3.48,0,0,0,44.58,33h.08a6.47,6.47,0,0,0-1.33-.47,3.46,3.46,0,0,0-3.83,4.63,4,4,0,0,0,1.65,1.92"/><path class="cls-3" d="M9.31,22.19l.1,0c-1.7-.43-3.65-3.09-3.41-5,.69-.07,13.22,0,14.28,0H29.2c.23,0,.15.16.15.74V22.2c0,.16,0,.12.12.17V16.86H5.22a5.48,5.48,0,0,0,1.23,3.46,5.39,5.39,0,0,0,2.86,1.88"/><path class="cls-3" d="M29.46,33.52c-.16,0-.12,0-.11.52v.65c0,.92,0,3.24,0,3.86-.44.07-4,0-4.71,0-1.51,0-3.3.09-4.74-.06a5.42,5.42,0,0,1-3.09-1.64,5.15,5.15,0,0,1-1.42-3.38l-.41,0a5.44,5.44,0,0,0,1.35,3.64A5.61,5.61,0,0,0,19.53,39a13.7,13.7,0,0,0,2.42.09c2.42,0,5.13,0,7.48,0,.11-.4.06-4.82,0-5.53"/><path class="cls-3" d="M29.46,25.2c-.19,0-.12-.07-.11.57s.07,4.63-.05,4.74-12,0-13.45,0c-2.3,0-4.15.24-5.78-1A5.26,5.26,0,0,1,8,26.66a8,8,0,0,1-.23-1.49H7.09a5.52,5.52,0,0,0,2.38,4.56c1.78,1.25,3.58,1,6,1H25.93c1.15,0,2.39,0,3.53,0Z"/><path class="cls-3" d="M31.31,17.13a17.08,17.08,0,0,0,2.29.32,38.1,38.1,0,0,1,6.27,1.44,27.51,27.51,0,0,1,3.64,1.51,17.14,17.14,0,0,1,3.13,2h.81a15.17,15.17,0,0,0-3.23-2.16,31.44,31.44,0,0,0-8.09-2.7,26.73,26.73,0,0,0-4.81-.66Z"/><path class="cls-3" d="M41.15,39.07A3.55,3.55,0,1,0,44.66,33h-.08a3.48,3.48,0,0,1-.68,6.17,3.19,3.19,0,0,1-1.44.2,3.39,3.39,0,0,1-1-.24l-.17-.07h0c-.09,0-.05,0-.09,0"/><path class="cls-3" d="M51.44,30A8.9,8.9,0,0,0,51,27.38a10.85,10.85,0,0,0-1-2.18h-.83a7.49,7.49,0,0,0,.47.94,9.56,9.56,0,0,1,.9,3.29v1.15H31.35l0,.14c.45.11,15.92,0,17.64,0,.7,0,1.87.07,2.51,0Z"/><path class="cls-3" d="M31.92,38.23a3.5,3.5,0,0,0,2.41,1.57,3.56,3.56,0,0,0,2.75-6.31c.08.24.4.42.66,1.08A3.34,3.34,0,0,1,38,36.05a3.46,3.46,0,0,1-3.72,3.32,4.18,4.18,0,0,1-2.37-1.14"/></g></g></svg>