<svg xmlns="http://www.w3.org/2000/svg" viewBox="0 0 61.47 56.91"><defs><style>.cls-1{fill:#04e061;}.cls-2{fill:#ff4053;}.cls-3{fill:#965eeb;}.cls-4{fill:#0af;}</style></defs><g id="Layer_2" data-name="Layer 2"><g id="Layer_1-2" data-name="Layer 1"><path class="cls-1" d="M18.41,56.91a18.42,18.42,0,1,0,0-36.83h0a18.42,18.42,0,0,0,0,36.83Z"/><path class="cls-2" d="M50.35,54.59A11.13,11.13,0,1,0,39.22,43.46,11.12,11.12,0,0,0,50.35,54.59Z"/><path class="cls-3" d="M21.93,17.69a6.89,6.89,0,0,0,.25-13.77h-.25a6.89,6.89,0,0,0,0,13.77Z"/><path class="cls-4" d="M46,29.94a15,15,0,1,0-15-15A15,15,0,0,0,46,29.94Z"/></g></g></svg>