<svg xmlns="http://www.w3.org/2000/svg" viewBox="0 0 2165.32 331.82"><defs><style>.cls-1{fill:#0188fc;}.cls-1,.cls-2,.cls-3,.cls-4,.cls-5{fill-rule:evenodd;}.cls-2{fill:#21f0fd;}.cls-3{fill:#f4fbfa;}.cls-4{fill:#4487bc;}.cls-5{fill:#fdfdfd;}</style></defs><g id="Layer_2" data-name="Layer 2"><g id="Layer_1-2" data-name="Layer 1"><path class="cls-1" d="M59,77.08c9.42,6.16,54.22,4.69,69.64,4.69H333c5.56,0,13.17,1.3,16.89-2.13-2.25-.74-1.24-.12-1.75-2.43l0-61.87c0-8.42,1.2-10.14-2.09-10.75l-128.72,0c-15.39,0-196.24-.86-206.21.17-3.39,27.43,24.74,65.74,49.28,72Z"/><path class="cls-1" d="M349.82,120.55c-5.14-1.91-138.48-.54-156.46-.54q-39.27,0-78.55,0c-25.4,0-53.38-1.12-78.46.11,1.15,8.1.86,14,3.25,21.46,6.24,19.5,14.82,30.75,30.34,42.24,23.47,17.39,50.21,13.84,83.42,13.84,20.33,0,190.31,1.36,194.11-.57,1.67-1.56.8-57.67.7-68.29-.09-9.26-1.08-8.36,1.65-8.25"/><path class="cls-2" d="M376.58,199.91l.45-2,276.62.06,0-16.6c.46-11.85-7.42-36.31-13-47.49-2.07-4.16-5.22-9.16-6.8-13.51l12,.15c-5.09-1.18-216.14-.34-238.69-.34-11,0-23-.67-33.28.75l-.19,77c3.93,3.2,2.56,1.59,2.86,2"/><path class="cls-1" d="M146.38,240.1c1.41,22.23,9.41,36.51,20.6,48.89,8.78,9.71,27.19,21.85,44.52,23.61,20.87,2.13,46.72.89,68.41.89,10.89,0,61.71.65,68-.28,1-9,.21-42.51.21-55.68,0-3.15,0-6.31,0-9.46-.11-7.83-.73-7.37,1.63-7.44-2.19-1.49-1.15-.77-3-4.34l-200.16.12Z"/><path class="cls-2" d="M552.5,51.18C536.68,43,519.47,36.26,500,29.51c-28.49-9.89-60-16-90.49-20.87-5.8-.92-29.83-2.6-33-4.66,0,.35.53-.91-2.66,1.91l-.11,76.38,225-1c-2.5-8-37.67-25.68-46.22-30.1"/><path class="cls-2" d="M385.25,308.49c3.82,1.08,12.94,15.23,34.3,16.52,29.52,1.78,52.68-20.46,53.61-47.85a49.74,49.74,0,0,0-3.83-21.43c-3.83-9.51-8.44-12.15-9.6-15.6-3.31-3.43-10-7.42-15.1-9.85-32.54-15.63-69,8.57-70.82,41-.67,12.16,4.28,30.73,11.44,37.17"/><path class="cls-2" d="M518.52,320.72c.56-.28-.06-.32,1.33-.25l.48,0,2.48,1A47.6,47.6,0,0,0,537.36,325c7.71.49,14.81-.45,20.89-3,46.07-19.1,37.46-73.84,9.76-89l1.22-.21c-2.29-1.72-15.5-6-19.33-6.7-37.18-6.53-69,29.84-55.27,66.8,4,10.74,15.13,23.22,23.89,27.73"/><path class="cls-3" d="M59,77.08l1.44-.29c-24.54-6.26-52.67-44.57-49.28-72,10-1,190.82-.17,206.21-.17l128.72,0c3.29.61,2.1,2.33,2.09,10.75l0,61.87c.54,2.31-.5,1.69,1.75,2.43l0-79.56L0,0C-.52,19.75,8,37.7,17.65,50,25.25,59.55,43,74.54,59,77.08"/><path class="cls-3" d="M349.79,240.63c-2.36.07-1.74-.39-1.63,7.44,0,3.15,0,6.31,0,9.46,0,13.17.74,46.72-.21,55.68-6.34.93-57.16.28-68,.28-21.69,0-47.54,1.24-68.41-.89C194.17,310.84,175.76,298.7,167,289c-11.19-12.38-19.19-26.66-20.6-48.89l-5.84.29c-2.43,18.89,10.11,41.36,19.53,52.61,9.91,11.84,25.66,22.09,46.38,26.24,9.89,2,23.94,1.23,34.91,1.23,34.95,0,74.08.75,108.07,0,1.58-5.84.81-69.55.36-79.8"/><path class="cls-3" d="M349.82,120.55c-2.73-.11-1.74-1-1.65,8.25.1,10.62,1,66.73-.7,68.29-3.8,1.93-173.78.57-194.11.57-33.21,0-60,3.55-83.42-13.84-15.52-11.49-24.1-22.74-30.34-42.24-2.39-7.48-2.1-13.36-3.25-21.46l-9.37.13c-2.2,24.9,14.72,52,34.27,65.74,25.66,18,51.7,14.29,87,14.29H298.82c16.63,0,34.49.62,51-.11Z"/><path class="cls-3" d="M376.49,4c3.21,2.06,27.24,3.74,33,4.66,30.52,4.87,62,11,90.49,20.87,19.45,6.75,36.66,13.5,52.48,21.67,16,8.28,32.77,18.52,45.16,29l11.75-.11c-3.13-6.23-35.55-25.45-46.67-31.2-35.14-18.2-77.26-31.16-116.69-39C430.16,6.75,392.24-.68,376.59.5Z"/><path class="cls-3" d="M518.52,320.72c16,16.15,57.72,17.1,76.07-14.67,17.51-30.32-1.42-66.32-25.36-73.16l-1.22.21c27.7,15.11,36.31,69.85-9.76,89-6.08,2.52-13.18,3.46-20.89,3a47.6,47.6,0,0,1-14.55-3.49l-2.48-1-.48,0c-1.39-.07-.77,0-1.33.25"/><path class="cls-3" d="M666.94,190.4c1.32-8.73-4-30.55-6.52-38.49-3.91-12.09-8.5-21.08-14.54-31.41l-12-.15c1.58,4.35,4.73,9.35,6.8,13.51,5.58,11.18,13.46,35.64,13,47.49l0,16.6L377,197.89l-.45,2c6.56,1.49,229.75.46,254.61.46,10.09,0,27,1,36.25-.27Z"/><path class="cls-3" d="M385.25,308.49c4.75,10.61,20.9,20.35,34.85,22.67,17.71,2.95,33.16-4.33,42.72-12.9,24.89-22.29,19.6-62.95-3.09-78.13,1.16,3.45,5.77,6.09,9.6,15.6a49.74,49.74,0,0,1,3.83,21.43c-.93,27.39-24.09,49.63-53.61,47.85-21.36-1.29-30.48-15.44-34.3-16.52"/><path class="cls-4" d="M1217,96.06l26.78.09,2.43-4.58a3.57,3.57,0,0,1-.47-.76c-.09-.2-.32-.53-.42-.79-2.49-6.53,1,5.75-.58-1.75l-.1-10.5c0-9.69.57-36.57-.41-42.94l-27.91,0c2.34,9.66.49,48.33.68,61.26"/><path class="cls-5" d="M1735.32,301.27l-2.43,4.58H1816c1.46-4.61,16.47-29.19,20.3-35.9,4.73-8.3,57.34-101.21,61.62-103.54l.13,52.35-.12,87h72.54V202.14c0-5.62,0-11.24,0-16.86l1.36-17.48c2.66,2.36,27,44.24,29,49.18l51.93,88.12c11.92.71,74.57,1.73,82.84-.33-.94-.82-85.76-139.63-87.56-144.77,0-2.59,54.71-89.79,61-99.79l19.68-32.65c-11.68-.69-75.37-1.84-81.47.89l-44.32,78.15c-4.68,8.35-10.74,17.84-15.74,26.59-2.71,4.75-11.83,23.47-16.72,26.31l-.21-132.11-71.83.23-.57,132.4c-2.71-1.49-4.19-5.21-5.66-7.82-1.71-3-3.16-5.43-4.68-8.08L1820.89,26.94l-80.47-.07c1.47,6.68,60,99.94,70,116.5,3,5,7.47,11.31,10.14,16.81Z"/><path class="cls-5" d="M1389.35,305.87l5.05-1.5c25.24-4.08,47-8.16,67.13-27.8,32.39-31.64,37.55-105.81-20.26-132.82-31.94-14.92-55.36-11.52-86.72-13.91l.25-42.52,107.35-.54-.37-60.2-182.51.17-.44,279Zm-9-59.92c-4.61,3.35-19.38,2.34-25.81,1.37l0-59.92c8.08-1.28,17-.33,24.59.74,17.44,2.54,29.75,9.27,29.7,28.74C1408.76,234,1397.05,246.22,1380.37,246Z"/><path class="cls-5" d="M842.63,213.34l24.59-.44a5.79,5.79,0,0,1,.88-.46l5.27-1.73c14.21-3,24.49-5.66,37.49-13.88,43-27.22,48.45-90.28,29-126.85C927.21,46.23,900.77,31,864.58,28c-18.43-1.56-93-.8-116.21-.6l.2,277.79c15.84.55,61.3,2.17,74.65-.24l.12-91.55Zm-19.4-61.64L823.29,88l19.23,0C863,89.09,874.4,95.4,874,116.8,873.23,148.64,848.41,152.43,823.23,151.7Z"/><path class="cls-5" d="M1060.9,309.55l1.85-.73.93-.3,9.8-1.79c4-.84,8-1.65,11.87-2.86,52.42-16.3,67-64.48,88.62-114.62,5-11.6,68.3-155.11,69.65-162.45l-80.51.06c-6.58,15.17-13.34,36-19.5,53-3.16,8.72-6.33,17.24-9.58,26.24-2.28,6.33-7.73,19.45-8.81,26.15-1.59,4.52-8.83,31.54-11,33-3.07-1.62-3-4.7-4-8.44-.81-2.95-1.79-5.78-2.84-9.09-1.64-5.16-4-11.24-6.37-17.83-9.16-25.46-35.15-83.26-41.16-102.81L979,26.87c1.55,7.75,74.47,164.36,85.53,189.11,3.38,7.58,6.3,8.85,1.74,17.25-6.38,11.73-14,18-32.12,17.21-29.63-1.34-18-.15-43.29-5.94l.21,59.65c47.11,9,44.81,2.39,69.8,5.4"/><path class="cls-5" d="M1541.23,305.49l164.88.27c-.19-12.94,1.66-51.6-.68-61.26l-62-.1-27.46-.34c0-9.41-1.77-46,.78-51.43,5.79-2.9,69.17-.82,82.59-1.49l-.21-59.07-83-.95.06-43.5,89.9-1.1-.16-59.15-164.72.23Z"/><path class="cls-4" d="M2047.24,28.45c6.1-2.73,69.79-1.58,81.47-.89L2109,60.21c-6.26,10-61,97.2-61,99.79,1.8,5.14,86.62,144,87.56,144.77-8.27,2.06-70.92,1-82.84.33,4,2.49,22.42,1.06,27.53,1.14,25,.37,61.35.72,85-.29-.08-4.17-74.54-125.39-83.26-139.26-5.67-9-3-7.67,2.58-17.13,3.7-6.31,7.25-11.54,10.92-17.55l42.5-69.11c4.21-6.91,19.55-29.42,20.73-35.91l-84.8-.61c-5.36,0-24.25-1.67-26.75,2.07"/><path class="cls-4" d="M1389.35,305.87c29.63,2.94,67.06-7.34,86.35-20.34,21.63-14.58,34.72-37.79,33.85-72.87-.84-33.38-15.4-54.45-39.72-66.94-30.17-15.49-53.54-13.64-90.54-16.19l0-41.31,107.28-.35.54-60.62-25.35-.67.37,60.2-107.35.54-.25,42.52c31.36,2.39,54.78-1,86.72,13.91,57.81,27,52.65,101.18,20.26,132.82-20.1,19.64-41.89,23.72-67.13,27.8Z"/><path class="cls-4" d="M1541.23,305.49l-.06-277.89,164.72-.23.16,59.15-89.9,1.1-.06,43.5,83,.95.21,59.07c-13.42.67-76.8-1.41-82.59,1.49-2.55,5.45-.81,42-.78,51.43l27.46.34-.07-51.46c13.29-2.42,71.88,1.26,83.63-1.67L1727,132l-83.47-1.37.08-42.47,89.53-.31c1.2-5,1.21-56.4,0-61-8.1-.39-184.37-1.65-192.59.06-1.43,8.85,0,231.53-.38,270.11,0,3.49-.47,5.93,1.09,8.5"/><path class="cls-4" d="M1060.9,309.55c38.41,2.6,70-11.43,89.22-32.53,18.42-20.19,29.82-51.85,42.15-79,12.94-28.46,24.72-57.33,36.52-84.61,4.92-11.39,35.75-79.8,36.49-86.39l-21.66-.24c-1.35,7.34-64.63,150.85-69.65,162.45-21.67,50.14-36.2,98.32-88.62,114.62-3.91,1.21-7.9,2-11.87,2.86l-9.8,1.79-.93.3Z"/><path class="cls-4" d="M842.63,213.34l-19.29,0-.12,91.55c-13.35,2.41-58.81.79-74.65.24l-.2-277.79c23.19-.2,97.78-1,116.21.6,36.19,3,62.63,18.24,75.27,42,19.46,36.57,14,99.63-29,126.85-13,8.22-23.28,10.93-37.49,13.88l-5.27,1.73a5.79,5.79,0,0,0-.88.46c39.49,2.74,72.41-17.15,87.22-39.94,17.1-26.3,20.91-73.29,4.37-103-27.24-48.92-92.64-43.59-146.93-43.59L748,26.7l0,279.27,93.84.25Z"/><path class="cls-4" d="M1816,305.84l29.41-.15c2.15-.86,33.64-56.44,39.32-66.35l9.69-16.7c2-3.53,1-3.45,3.63-3.89l-.13-52.35c-4.28,2.33-56.89,95.24-61.62,103.54-3.83,6.71-18.84,31.29-20.3,35.9"/><path class="cls-4" d="M1970.44,305.75l30.35.16.06-88.93c-2-4.94-26.39-46.82-29-49.18l-1.36,17.48c0,5.62,0,11.24,0,16.86Z"/><path class="cls-4" d="M2002.92,106.6c-5.93-3.46,1.21,4.11-1.16-1.67-1.9-4.6-.84-32.26-.84-37.64,0-11.62,1-29.48-.33-40.35-1.31-.14-94.89-2.06-100.89,0l-1.28.7,71.83-.23.21,132.11c4.89-2.84,14-21.56,16.72-26.31,5-8.75,11.06-18.24,15.74-26.59"/><path class="cls-4" d="M1898.42,27.62c-1.72,2.35-1,15-1,18.6,0,17.14.7,45.47-.33,60.32a8.16,8.16,0,0,1-1.6-1.85L1874,67.14c-3.82-6.73-7.44-13-11.54-20.1-3.47-6-7.7-14.76-11.81-19.79l-29.75-.31,66.62,117.18c1.52,2.65,3,5,4.68,8.08,1.47,2.61,3,6.33,5.66,7.82Z"/><path class="cls-4" d="M1125.22,132.26c-2.26-1.18-.35.76-2.2-2l-19.94-49.75c-7.18-17.09-14.91-35.74-21.45-53.27l-21.77-.09c6,19.55,32,77.35,41.16,102.81,2.37,6.59,4.73,12.67,6.37,17.83,1,3.31,2,6.14,2.84,9.09,1,3.74.94,6.82,4,8.44,2.15-1.49,9.39-28.51,11-33"/><path class="cls-4" d="M1380.37,246c-2.47-1.59-1.28-23.43-1.28-28,0-9.93,0-19.87,0-29.8-7.55-1.07-16.51-2-24.59-.74l0,59.92c6.43,1,21.2,2,25.81-1.37"/><path class="cls-4" d="M842.48,150.92l0-63-19.23,0-.06,63.74c5.3,1.41,22.59-1.33,19.25-.78"/></g></g></svg>